<svg xmlns="http://www.w3.org/2000/svg" xmlns:xlink="http://www.w3.org/1999/xlink" width="520" zoomAndPan="magnify" viewBox="0 0 390 44.249999" height="59" preserveAspectRatio="xMidYMid meet" version="1.0"><defs><filter x="0%" y="0%" width="100%" height="100%" id="daed854d83"><feColorMatrix values="0 0 0 0 1 0 0 0 0 1 0 0 0 0 1 0 0 0 1 0" color-interpolation-filters="sRGB"/></filter><g/><clipPath id="0c262fa1ef"><path d="M 239 4.351562 L 346 4.351562 L 346 43 L 239 43 Z M 239 4.351562 " clip-rule="nonzero"/></clipPath><mask id="d357179a37"><g filter="url(#daed854d83)"><rect x="-39" width="468" fill="#000000" y="-4.425" height="53.099998" fill-opacity="0.45"/></g></mask><clipPath id="ff0fffba4d"><rect x="0" width="107" y="0" height="39"/></clipPath></defs><g fill="#c8a97e" fill-opacity="1"><g transform="translate(12.181906, 33.911594)"><g><path d="M 15.75 0 L 15.125 0 L 6.140625 -20.96875 L 6.140625 -1.453125 L 9.4375 -0.96875 L 9.4375 0 L 1.078125 0 L 1.078125 -0.96875 L 4.21875 -1.453125 L 4.21875 -22.9375 L 1.078125 -23.421875 L 1.078125 -24.375 L 8.5 -24.375 L 16.46875 -5.84375 L 25.171875 -24.375 L 32.1875 -24.375 L 32.1875 -23.421875 L 29.046875 -22.9375 L 29.046875 -1.453125 L 32.1875 -0.96875 L 32.1875 0 L 22.25 0 L 22.25 -0.96875 L 25.53125 -1.453125 L 25.53125 -20.96875 Z M 15.75 0 "/></g></g></g><g fill="#c8a97e" fill-opacity="1"><g transform="translate(47.803526, 33.911594)"><g><path d="M 6.921875 -22.671875 C 6.921875 -22.140625 6.726562 -21.675781 6.34375 -21.28125 C 5.957031 -20.894531 5.488281 -20.703125 4.9375 -20.703125 C 4.394531 -20.703125 3.929688 -20.894531 3.546875 -21.28125 C 3.160156 -21.675781 2.96875 -22.140625 2.96875 -22.671875 C 2.96875 -23.210938 3.160156 -23.675781 3.546875 -24.0625 C 3.929688 -24.457031 4.394531 -24.65625 4.9375 -24.65625 C 5.488281 -24.65625 5.957031 -24.457031 6.34375 -24.0625 C 6.726562 -23.675781 6.921875 -23.210938 6.921875 -22.671875 Z M 6.75 -1.265625 L 9.6875 -0.8125 L 9.6875 0 L 0.78125 0 L 0.78125 -0.8125 L 3.703125 -1.265625 L 3.703125 -15.8125 L 1.28125 -16.265625 L 1.28125 -17.09375 L 6.75 -17.09375 Z M 6.75 -1.265625 "/></g></g></g><g fill="#c8a97e" fill-opacity="1"><g transform="translate(60.542982, 33.911594)"><g><path d="M 6.109375 0.359375 C 4.929688 0.359375 4.050781 0.015625 3.46875 -0.671875 C 2.894531 -1.359375 2.609375 -2.328125 2.609375 -3.578125 L 2.609375 -15.5625 L 0.359375 -15.5625 L 0.359375 -16.375 L 2.65625 -17.09375 L 4.5 -20.96875 L 5.65625 -20.96875 L 5.65625 -17.09375 L 9.578125 -17.09375 L 9.578125 -15.5625 L 5.65625 -15.5625 L 5.65625 -3.90625 C 5.65625 -3.125 5.832031 -2.53125 6.1875 -2.125 C 6.550781 -1.726562 7.023438 -1.53125 7.609375 -1.53125 C 8.316406 -1.53125 9.175781 -1.625 10.1875 -1.8125 L 10.1875 -0.640625 C 9.757812 -0.347656 9.140625 -0.109375 8.328125 0.078125 C 7.523438 0.265625 6.785156 0.359375 6.109375 0.359375 Z M 6.109375 0.359375 "/></g></g></g><g fill="#c8a97e" fill-opacity="1"><g transform="translate(73.282438, 33.911594)"><g><path d="M 15.46875 -1.03125 C 14.863281 -0.59375 14.035156 -0.25 12.984375 0 C 11.941406 0.238281 10.875 0.359375 9.78125 0.359375 C 4.207031 0.359375 1.421875 -2.648438 1.421875 -8.671875 C 1.421875 -11.515625 2.128906 -13.703125 3.546875 -15.234375 C 4.972656 -16.773438 7.007812 -17.546875 9.65625 -17.546875 C 11.300781 -17.546875 13.097656 -17.359375 15.046875 -16.984375 L 15.046875 -12.21875 L 14.046875 -12.21875 L 13.25 -15.234375 C 12.238281 -15.804688 11.023438 -16.09375 9.609375 -16.09375 C 6.347656 -16.09375 4.71875 -13.617188 4.71875 -8.671875 C 4.71875 -6.097656 5.210938 -4.265625 6.203125 -3.171875 C 7.203125 -2.078125 8.742188 -1.53125 10.828125 -1.53125 C 12.597656 -1.53125 14.144531 -1.726562 15.46875 -2.125 Z M 15.46875 -1.03125 "/></g></g></g><g fill="#c8a97e" fill-opacity="1"><g transform="translate(92.2359, 33.911594)"><g><path d="M 5.953125 -18.4375 C 5.953125 -17.175781 5.910156 -16.265625 5.828125 -15.703125 C 6.703125 -16.203125 7.695312 -16.632812 8.8125 -17 C 9.9375 -17.363281 10.878906 -17.546875 11.640625 -17.546875 C 13.128906 -17.546875 14.25 -17.113281 15 -16.25 C 15.757812 -15.394531 16.140625 -14.148438 16.140625 -12.515625 L 16.140625 -1.265625 L 18.21875 -0.8125 L 18.21875 0 L 10.828125 0 L 10.828125 -0.8125 L 13.109375 -1.265625 L 13.109375 -12.296875 C 13.109375 -14.378906 12.097656 -15.421875 10.078125 -15.421875 C 8.929688 -15.421875 7.554688 -15.242188 5.953125 -14.890625 L 5.953125 -1.265625 L 8.28125 -0.8125 L 8.28125 0 L 0.75 0 L 0.75 -0.8125 L 2.921875 -1.265625 L 2.921875 -24.578125 L 0.359375 -25.015625 L 0.359375 -25.828125 L 5.953125 -25.828125 Z M 5.953125 -18.4375 "/></g></g></g><g fill="#c8a97e" fill-opacity="1"><g transform="translate(113.291158, 33.911594)"><g><path d="M 15.75 0 L 15.125 0 L 6.140625 -20.96875 L 6.140625 -1.453125 L 9.4375 -0.96875 L 9.4375 0 L 1.078125 0 L 1.078125 -0.96875 L 4.21875 -1.453125 L 4.21875 -22.9375 L 1.078125 -23.421875 L 1.078125 -24.375 L 8.5 -24.375 L 16.46875 -5.84375 L 25.171875 -24.375 L 32.1875 -24.375 L 32.1875 -23.421875 L 29.046875 -22.9375 L 29.046875 -1.453125 L 32.1875 -0.96875 L 32.1875 0 L 22.25 0 L 22.25 -0.96875 L 25.53125 -1.453125 L 25.53125 -20.96875 Z M 15.75 0 "/></g></g></g><g fill="#c8a97e" fill-opacity="1"><g transform="translate(148.912777, 33.911594)"><g><path d="M 5.71875 -4.875 C 5.71875 -2.789062 6.691406 -1.75 8.640625 -1.75 C 10.148438 -1.75 11.566406 -1.9375 12.890625 -2.3125 L 12.890625 -15.8125 L 10.296875 -16.265625 L 10.296875 -17.09375 L 15.90625 -17.09375 L 15.90625 -1.265625 L 18.078125 -0.8125 L 18.078125 0 L 13.0625 0 L 12.921875 -1.375 C 12.054688 -0.90625 11.054688 -0.5 9.921875 -0.15625 C 8.785156 0.1875 7.835938 0.359375 7.078125 0.359375 C 4.148438 0.359375 2.6875 -1.3125 2.6875 -4.65625 L 2.6875 -15.8125 L 0.5 -16.265625 L 0.5 -17.09375 L 5.71875 -17.09375 Z M 5.71875 -4.875 "/></g></g></g><g fill="#c8a97e" fill-opacity="1"><g transform="translate(169.968035, 33.911594)"><g><path d="M 12.140625 -17.546875 L 12.140625 -12.921875 L 11.359375 -12.921875 L 10.296875 -14.921875 C 9.679688 -14.921875 8.957031 -14.835938 8.125 -14.671875 C 7.289062 -14.515625 6.566406 -14.300781 5.953125 -14.03125 L 5.953125 -1.265625 L 8.90625 -0.8125 L 8.90625 0 L 0.75 0 L 0.75 -0.8125 L 2.921875 -1.265625 L 2.921875 -15.8125 L 0.75 -16.265625 L 0.75 -17.09375 L 5.765625 -17.09375 L 5.921875 -14.96875 C 6.648438 -15.570312 7.640625 -16.148438 8.890625 -16.703125 C 10.140625 -17.265625 11.128906 -17.546875 11.859375 -17.546875 Z M 12.140625 -17.546875 "/></g></g></g><g fill="#c8a97e" fill-opacity="1"><g transform="translate(184.772735, 33.911594)"><g><path d="M 12.140625 -17.546875 L 12.140625 -12.921875 L 11.359375 -12.921875 L 10.296875 -14.921875 C 9.679688 -14.921875 8.957031 -14.835938 8.125 -14.671875 C 7.289062 -14.515625 6.566406 -14.300781 5.953125 -14.03125 L 5.953125 -1.265625 L 8.90625 -0.8125 L 8.90625 0 L 0.75 0 L 0.75 -0.8125 L 2.921875 -1.265625 L 2.921875 -15.8125 L 0.75 -16.265625 L 0.75 -17.09375 L 5.765625 -17.09375 L 5.921875 -14.96875 C 6.648438 -15.570312 7.640625 -16.148438 8.890625 -16.703125 C 10.140625 -17.265625 11.128906 -17.546875 11.859375 -17.546875 Z M 12.140625 -17.546875 "/></g></g></g><g fill="#c8a97e" fill-opacity="1"><g transform="translate(199.577434, 33.911594)"><g><path d="M 8.5 -17.46875 C 10.375 -17.46875 11.753906 -17.085938 12.640625 -16.328125 C 13.523438 -15.566406 13.96875 -14.394531 13.96875 -12.8125 L 13.96875 -1.265625 L 16.109375 -0.8125 L 16.109375 0 L 11.390625 0 L 11.046875 -1.703125 C 9.648438 -0.328125 7.875 0.359375 5.71875 0.359375 C 2.78125 0.359375 1.3125 -1.335938 1.3125 -4.734375 C 1.3125 -5.867188 1.535156 -6.804688 1.984375 -7.546875 C 2.429688 -8.296875 3.140625 -8.867188 4.109375 -9.265625 C 5.085938 -9.660156 6.503906 -9.875 8.359375 -9.90625 L 10.9375 -9.984375 L 10.9375 -12.65625 C 10.9375 -13.832031 10.71875 -14.695312 10.28125 -15.25 C 9.851562 -15.8125 9.1875 -16.09375 8.28125 -16.09375 C 7.0625 -16.09375 5.945312 -15.804688 4.9375 -15.234375 L 4.3125 -13.109375 L 3.296875 -13.109375 L 3.296875 -16.828125 C 5.265625 -17.253906 7 -17.46875 8.5 -17.46875 Z M 10.9375 -8.703125 L 8.53125 -8.640625 C 6.90625 -8.578125 5.800781 -8.257812 5.21875 -7.6875 C 4.632812 -7.125 4.34375 -6.175781 4.34375 -4.84375 C 4.34375 -2.707031 5.21875 -1.640625 6.96875 -1.640625 C 7.789062 -1.640625 8.503906 -1.734375 9.109375 -1.921875 C 9.710938 -2.109375 10.320312 -2.347656 10.9375 -2.640625 Z M 10.9375 -8.703125 "/></g></g></g><g fill="#c8a97e" fill-opacity="1"><g transform="translate(218.530896, 33.911594)"><g><path d="M 3.640625 8.03125 C 2.691406 8.03125 1.753906 7.921875 0.828125 7.703125 L 0.828125 4.015625 L 1.6875 4.015625 L 2.28125 5.765625 C 2.664062 6.046875 3.191406 6.1875 3.859375 6.1875 C 4.492188 6.1875 5.078125 6.003906 5.609375 5.640625 C 6.148438 5.273438 6.640625 4.734375 7.078125 4.015625 C 7.523438 3.296875 8.082031 2.019531 8.75 0.1875 L 2.21875 -15.8125 L 0.453125 -16.265625 L 0.453125 -17.09375 L 8.421875 -17.09375 L 8.421875 -16.265625 L 5.71875 -15.78125 L 10.359375 -3.84375 L 14.859375 -15.8125 L 12.171875 -16.265625 L 12.171875 -17.09375 L 18.578125 -17.09375 L 18.578125 -16.265625 L 16.78125 -15.890625 L 10.078125 1.078125 C 9.285156 3.078125 8.59375 4.507812 8 5.375 C 7.414062 6.25 6.769531 6.910156 6.0625 7.359375 C 5.363281 7.804688 4.554688 8.03125 3.640625 8.03125 Z M 3.640625 8.03125 "/></g></g></g><g clip-path="url(#0c262fa1ef)"><g mask="url(#d357179a37)"><g transform="matrix(1, 0, 0, 1, 239, 4)"><g clip-path="url(#ff0fffba4d)"><g fill="#c8a97e" fill-opacity="1"><g transform="translate(0.586812, 29.911594)"><g><path d="M 15.75 0 L 15.125 0 L 6.140625 -20.96875 L 6.140625 -1.453125 L 9.4375 -0.96875 L 9.4375 0 L 1.078125 0 L 1.078125 -0.96875 L 4.21875 -1.453125 L 4.21875 -22.9375 L 1.078125 -23.421875 L 1.078125 -24.375 L 8.5 -24.375 L 16.46875 -5.84375 L 25.171875 -24.375 L 32.1875 -24.375 L 32.1875 -23.421875 L 29.046875 -22.9375 L 29.046875 -1.453125 L 32.1875 -0.96875 L 32.1875 0 L 22.25 0 L 22.25 -0.96875 L 25.53125 -1.453125 L 25.53125 -20.96875 Z M 15.75 0 "/></g></g></g><g fill="#c8a97e" fill-opacity="1"><g transform="translate(36.208431, 29.911594)"><g><path d="M 5.71875 -4.875 C 5.71875 -2.789062 6.691406 -1.75 8.640625 -1.75 C 10.148438 -1.75 11.566406 -1.9375 12.890625 -2.3125 L 12.890625 -15.8125 L 10.296875 -16.265625 L 10.296875 -17.09375 L 15.90625 -17.09375 L 15.90625 -1.265625 L 18.078125 -0.8125 L 18.078125 0 L 13.0625 0 L 12.921875 -1.375 C 12.054688 -0.90625 11.054688 -0.5 9.921875 -0.15625 C 8.785156 0.1875 7.835938 0.359375 7.078125 0.359375 C 4.148438 0.359375 2.6875 -1.3125 2.6875 -4.65625 L 2.6875 -15.8125 L 0.5 -16.265625 L 0.5 -17.09375 L 5.71875 -17.09375 Z M 5.71875 -4.875 "/></g></g></g><g fill="#c8a97e" fill-opacity="1"><g transform="translate(57.263689, 29.911594)"><g><path d="M 13.21875 -4.796875 C 13.21875 -3.097656 12.675781 -1.8125 11.59375 -0.9375 C 10.519531 -0.0703125 8.925781 0.359375 6.8125 0.359375 C 5.957031 0.359375 5.015625 0.269531 3.984375 0.09375 C 2.960938 -0.0703125 2.160156 -0.265625 1.578125 -0.484375 L 1.578125 -4.6875 L 2.390625 -4.6875 L 3.296875 -2.3125 C 4.203125 -1.488281 5.390625 -1.078125 6.859375 -1.078125 C 9.222656 -1.078125 10.40625 -2.082031 10.40625 -4.09375 C 10.40625 -5.570312 9.472656 -6.625 7.609375 -7.25 L 5.984375 -7.78125 C 4.742188 -8.175781 3.84375 -8.582031 3.28125 -9 C 2.726562 -9.414062 2.296875 -9.921875 1.984375 -10.515625 C 1.679688 -11.117188 1.53125 -11.84375 1.53125 -12.6875 C 1.53125 -14.1875 2.046875 -15.367188 3.078125 -16.234375 C 4.109375 -17.109375 5.5 -17.546875 7.25 -17.546875 C 8.507812 -17.546875 10.082031 -17.359375 11.96875 -16.984375 L 11.96875 -13.25 L 11.109375 -13.25 L 10.34375 -15.234375 C 9.695312 -15.804688 8.679688 -16.09375 7.296875 -16.09375 C 6.304688 -16.09375 5.550781 -15.847656 5.03125 -15.359375 C 4.519531 -14.878906 4.265625 -14.226562 4.265625 -13.40625 C 4.265625 -12.707031 4.5 -12.117188 4.96875 -11.640625 C 5.4375 -11.171875 6.144531 -10.78125 7.09375 -10.46875 C 8.882812 -9.863281 10.050781 -9.421875 10.59375 -9.140625 C 11.144531 -8.867188 11.613281 -8.53125 12 -8.125 C 12.382812 -7.71875 12.679688 -7.25 12.890625 -6.71875 C 13.109375 -6.195312 13.21875 -5.554688 13.21875 -4.796875 Z M 13.21875 -4.796875 "/></g></g></g><g fill="#c8a97e" fill-opacity="1"><g transform="translate(74.170184, 29.911594)"><g><path d="M 6.921875 -22.671875 C 6.921875 -22.140625 6.726562 -21.675781 6.34375 -21.28125 C 5.957031 -20.894531 5.488281 -20.703125 4.9375 -20.703125 C 4.394531 -20.703125 3.929688 -20.894531 3.546875 -21.28125 C 3.160156 -21.675781 2.96875 -22.140625 2.96875 -22.671875 C 2.96875 -23.210938 3.160156 -23.675781 3.546875 -24.0625 C 3.929688 -24.457031 4.394531 -24.65625 4.9375 -24.65625 C 5.488281 -24.65625 5.957031 -24.457031 6.34375 -24.0625 C 6.726562 -23.675781 6.921875 -23.210938 6.921875 -22.671875 Z M 6.75 -1.265625 L 9.6875 -0.8125 L 9.6875 0 L 0.78125 0 L 0.78125 -0.8125 L 3.703125 -1.265625 L 3.703125 -15.8125 L 1.28125 -16.265625 L 1.28125 -17.09375 L 6.75 -17.09375 Z M 6.75 -1.265625 "/></g></g></g><g fill="#c8a97e" fill-opacity="1"><g transform="translate(86.90964, 29.911594)"><g><path d="M 15.46875 -1.03125 C 14.863281 -0.59375 14.035156 -0.25 12.984375 0 C 11.941406 0.238281 10.875 0.359375 9.78125 0.359375 C 4.207031 0.359375 1.421875 -2.648438 1.421875 -8.671875 C 1.421875 -11.515625 2.128906 -13.703125 3.546875 -15.234375 C 4.972656 -16.773438 7.007812 -17.546875 9.65625 -17.546875 C 11.300781 -17.546875 13.097656 -17.359375 15.046875 -16.984375 L 15.046875 -12.21875 L 14.046875 -12.21875 L 13.25 -15.234375 C 12.238281 -15.804688 11.023438 -16.09375 9.609375 -16.09375 C 6.347656 -16.09375 4.71875 -13.617188 4.71875 -8.671875 C 4.71875 -6.097656 5.210938 -4.265625 6.203125 -3.171875 C 7.203125 -2.078125 8.742188 -1.53125 10.828125 -1.53125 C 12.597656 -1.53125 14.144531 -1.726562 15.46875 -2.125 Z M 15.46875 -1.03125 "/></g></g></g></g></g></g></g></svg>